<?xml version="1.0" standalone="no"?>
<!DOCTYPE svg PUBLIC "-//W3C//DTD SVG 20010904//EN"
 "http://www.w3.org/TR/2001/REC-SVG-20010904/DTD/svg10.dtd">
<svg version="1.0" xmlns="http://www.w3.org/2000/svg"
 width="560.000000pt" height="560.000000pt" viewBox="0 0 560.000000 560.000000"
 preserveAspectRatio="xMidYMid meet">
<metadata>
Created by potrace 1.14, written by Peter Selinger 2001-2017
</metadata>
<g transform="translate(0.000000,560.000000) scale(0.100000,-0.100000)"
fill="#000000" stroke="none">
<path d="M2435 5380 c-127 -29 -217 -70 -312 -141 -129 -96 -241 -256 -248
-354 -1 -22 -3 -43 -4 -46 0 -3 -24 -20 -52 -38 -161 -105 -262 -388 -258
-723 2 -163 28 -298 83 -429 5 -12 -1 -20 -23 -29 -45 -18 -99 -73 -121 -122
-17 -38 -20 -66 -20 -239 0 -189 1 -197 25 -246 27 -54 71 -94 130 -119 32
-13 35 -18 35 -57 0 -23 7 -71 15 -107 78 -334 264 -589 529 -725 45 -23 88
-44 96 -47 24 -9 6 -18 -46 -24 -74 -9 -244 -51 -305 -76 -155 -63 -246 -157
-271 -281 l-14 -67 -88 -45 c-353 -182 -610 -486 -725 -860 -46 -152 -61 -256
-61 -441 l0 -164 2001 0 2002 0 -6 193 c-8 272 -47 429 -159 647 -137 268
-360 491 -624 625 l-92 46 -7 47 c-20 136 -120 241 -290 305 -82 31 -264 72
-340 77 -5 0 37 25 94 55 172 91 286 198 389 366 87 142 162 367 162 484 0 30
5 36 43 53 54 24 113 85 133 138 23 61 17 425 -8 470 -26 47 -77 95 -125 116
l-43 19 20 27 c28 37 77 183 94 278 22 123 15 385 -13 493 -37 139 -94 249
-178 342 l-33 37 35 52 c47 71 60 119 60 230 -1 84 -4 101 -29 150 -78 154
-190 186 -384 108 -204 -83 -305 -84 -577 -9 -193 54 -351 64 -490 31z"/>
</g>
</svg>
